<svg xmlns="http://www.w3.org/2000/svg" width="30.794" height="30.794" viewBox="0 0 30.794 30.794">
  <path id="Path_account-alert-outline" data-name="Path / account-alert-outline" d="M17.4,21.322c5.139,0,15.4,2.579,15.4,7.7v5.774H2V29.02c0-5.119,10.258-7.7,15.4-7.7M17.4,4a7.7,7.7,0,1,1-7.7,7.7A7.7,7.7,0,0,1,17.4,4m0,20.978c-5.716,0-11.74,2.81-11.74,4.042v2.117h23.48V29.02c0-1.232-6.024-4.042-11.74-4.042m0-17.322A4.042,4.042,0,1,0,21.439,11.7,4.042,4.042,0,0,0,17.4,7.657Z" transform="translate(-2 -4)" fill="#d32286"/>
</svg>
