<svg id="MDI_shield-lock-outline" data-name="MDI / shield-lock-outline" xmlns="http://www.w3.org/2000/svg" width="34.575" height="34.575" viewBox="0 0 34.575 34.575">
  <g id="Boundary" fill="#d32286" stroke="rgba(0,0,0,0)" stroke-width="1" opacity="0">
    <rect width="34.575" height="34.575" stroke="none"/>
    <rect x="0.5" y="0.5" width="33.575" height="33.575" fill="none"/>
  </g>
  <path id="Path_shield-lock-outline" data-name="Path / shield-lock-outline" d="M28.931,15.406c0,8-5.532,15.472-12.966,17.288C8.532,30.879,3,23.4,3,15.406V6.763L15.966,1,28.931,6.763v8.644M15.966,29.813c5.4-1.441,10.084-7.866,10.084-14.089V8.635L15.966,4.141,5.881,8.635v7.088c0,6.224,4.682,12.649,10.084,14.089M20,15.406V13.245c0-2.017-2.017-3.6-4.034-3.6s-4.034,1.585-4.034,3.6v2.161A1.859,1.859,0,0,0,10.2,17.135v5.042a1.886,1.886,0,0,0,1.729,1.873h7.923a1.886,1.886,0,0,0,1.873-1.729V17.279A1.886,1.886,0,0,0,20,15.406m-1.873,0H13.8V13.245a1.98,1.98,0,0,1,2.161-1.873,1.98,1.98,0,0,1,2.161,1.873Z" transform="translate(1.322 0.441)" fill="#d32286"/>
</svg>
